<svg xmlns="http://www.w3.org/2000/svg" width="1em" height="1em" viewBox="0 0 48 48"><defs><mask id="ipSTableReport0"><g fill="none" strokeLinejoin="round" ><path fill="#fff" stroke="#fff" d="M5 7a3 3 0 0 1 3-3h24a3 3 0 0 1 3 3v37H8a3 3 0 0 1-3-3z"></path><path stroke="#fff" d="M35 24a2 2 0 0 1 2-2h4a2 2 0 0 1 2 2v17a3 3 0 0 1-3 3h-5z"></path><path stroke="#000" strokeLinecap="round" d="M11 12h8m-8 7h12"></path></g></mask></defs><path fill="currentColor" d="M0 0h48v48H0z" mask="url(#ipSTableReport0)"></path></svg>